<svg width="24" height="24" viewBox="0 0 24 24" fill="none" xmlns="http://www.w3.org/2000/svg"><path d="M12.51 17.791a1.125 1.125 0 0 0-1.02 0l-4.11 2.084c-.871.441-1.852-.356-1.615-1.313l.96-3.898a1.166 1.166 0 0 0-.258-1.052l-3.173-3.574c-.632-.713-.183-1.85.76-1.924l4.426-.346a1.14 1.14 0 0 0 .95-.673l1.533-3.418a1.133 1.133 0 0 1 2.074 0l1.533 3.418c.172.383.536.641.95.673l4.426.346c.943.073 1.392 1.211.76 1.924l-3.173 3.574c-.254.285-.35.68-.259 1.053l.961 3.897c.237.957-.744 1.754-1.614 1.313l-4.111-2.084Z" stroke="#000" stroke-width="1.5" stroke-linecap="round" stroke-linejoin="round"/></svg>